<?xml version="1.0" encoding="UTF-8"?>
<svg width="404px" height="404px" viewBox="0 0 404 404" version="1.1" xmlns="http://www.w3.org/2000/svg" xmlns:xlink="http://www.w3.org/1999/xlink">
    <title>Artboard</title>
    <g id="Artboard" stroke="none" stroke-width="1" fill="none" fill-rule="evenodd">
        <g id="noun_Dump-Truck_793546" transform="translate(0.000000, 24.000000)" fill="#000000" fill-rule="nonzero">
            <path d="M404,176 C404,132 368,96 324,96 L284,96 L284,56 L212,56 L194,92 L124,0 L48,96 L0,96 L24,316 L66,316 C74,340 96,356 122,356 C148,356 170,340 178,316 L246,316 C254,340 276,356 302,356 C328,356 350,340 358,316 L402,316 L402,176 L404,176 Z M124,64 L148,96 L98,96 L124,64 Z M46,136 L216,136 L236,96 L244,96 L244,276 L180,276 C172,252 150,236 124,236 C98,236 76,252 68,276 L62,276 L46,136 Z M124,316 C112,316 104,308 104,296 C104,284 112,276 124,276 C136,276 144,284 144,296 C144,308 134,316 124,316 Z M304,316 C292,316 284,308 284,296 C284,296 284,296 284,296 L284,296 L284,296 C284,286 292,276 304,276 C316,276 324,284 324,296 C324,308 314,316 304,316 Z M364,276 L360,276 C352,252 330,236 304,236 C296,236 290,238 284,240 L284,136 L324,136 C346,136 364,154 364,176 L364,276 Z" id="Shape"></path>
        </g>
    </g>
</svg>